<?xml version="1.0" encoding="UTF-8" standalone="no"?>
<!-- Created with Inkscape (http://www.inkscape.org/) -->

<svg
   xmlns:dc="http://purl.org/dc/elements/1.1/"
   xmlns:cc="http://creativecommons.org/ns#"
   xmlns:rdf="http://www.w3.org/1999/02/22-rdf-syntax-ns#"
   xmlns:svg="http://www.w3.org/2000/svg"
   xmlns="http://www.w3.org/2000/svg"
   xmlns:xlink="http://www.w3.org/1999/xlink"
   xmlns:sodipodi="http://sodipodi.sourceforge.net/DTD/sodipodi-0.dtd"
   xmlns:inkscape="http://www.inkscape.org/namespaces/inkscape"
   width="32px"
   height="32px"
   id="svg4717"
   version="1.1"
   inkscape:version="0.48.4 r9939"
   sodipodi:docname="controller.svg"
   inkscape:export-filename="/home/josh/Desktop/controller-32.png"
   inkscape:export-xdpi="90"
   inkscape:export-ydpi="90">
  <defs
     id="defs4719">
    <linearGradient
       inkscape:collect="always"
       id="linearGradient5277">
      <stop
         style="stop-color:#b0daec;stop-opacity:1"
         offset="0"
         id="stop5279" />
      <stop
         style="stop-color:#3ec6ff;stop-opacity:1"
         offset="1"
         id="stop5281" />
    </linearGradient>
    <linearGradient
       inkscape:collect="always"
       id="linearGradient4740">
      <stop
         style="stop-color:#54a9cd;stop-opacity:1"
         offset="0"
         id="stop4742" />
      <stop
         style="stop-color:#3286a9;stop-opacity:1"
         offset="1"
         id="stop4744" />
    </linearGradient>
    <linearGradient
       inkscape:collect="always"
       xlink:href="#linearGradient4740"
       id="linearGradient4746"
       x1="8.5"
       y1="14"
       x2="27"
       y2="25.5"
       gradientUnits="userSpaceOnUse" />
    <linearGradient
       inkscape:collect="always"
       id="linearGradient5277-5">
      <stop
         style="stop-color:#b0daec;stop-opacity:1"
         offset="0"
         id="stop5279-5" />
      <stop
         style="stop-color:#3ec6ff;stop-opacity:1"
         offset="1"
         id="stop5281-3" />
    </linearGradient>
    <linearGradient
       y2="22"
       x2="22"
       y1="20"
       x1="20"
       gradientUnits="userSpaceOnUse"
       id="linearGradient5310"
       xlink:href="#linearGradient5277-5"
       inkscape:collect="always" />
    <linearGradient
       inkscape:collect="always"
       xlink:href="#linearGradient4740-9"
       id="linearGradient4746-5"
       x1="8.5"
       y1="14"
       x2="27"
       y2="25.5"
       gradientUnits="userSpaceOnUse" />
    <linearGradient
       inkscape:collect="always"
       id="linearGradient4740-9">
      <stop
         style="stop-color:#54a9cd;stop-opacity:1"
         offset="0"
         id="stop4742-4" />
      <stop
         style="stop-color:#3286a9;stop-opacity:1"
         offset="1"
         id="stop4744-4" />
    </linearGradient>
    <linearGradient
       gradientTransform="translate(-0.25,-12.25)"
       y2="25.5"
       x2="27"
       y1="14"
       x1="8.5"
       gradientUnits="userSpaceOnUse"
       id="linearGradient5357"
       xlink:href="#linearGradient4740-9"
       inkscape:collect="always" />
    <filter
       inkscape:collect="always"
       id="filter5381"
       x="-0.042580645"
       width="1.0851613"
       y="-0.10153846"
       height="1.2030769">
      <feGaussianBlur
         inkscape:collect="always"
         stdDeviation="0.55"
         id="feGaussianBlur5383" />
    </filter>
    <filter
       inkscape:collect="always"
       id="filter5413">
      <feGaussianBlur
         inkscape:collect="always"
         stdDeviation="0.33"
         id="feGaussianBlur5415" />
    </filter>
    <clipPath
       clipPathUnits="userSpaceOnUse"
       id="clipPath5430">
      <path
         style="font-size:medium;font-style:normal;font-evariant:normal;font-weight:normal;font-stretch:normal;text-indent:0;text-align:start;text-decoration:none;line-height:normal;letter-spacing:normal;word-spacing:normal;text-transform:none;direction:ltr;block-progression:tb;writing-mode:lr-tb;text-anchor:start;baseline-shift:baseline;color:#000000;fill:#4095b8;fill-opacity:1;stroke:none;stroke-width:2.5;marker:none;visibility:visible;display:inline;overflow:visible;enable-background:accumulate;font-family:Sans;-inkscape-font-specification:Sans"
         d="m 17.5,0.75 c -2.62037,0 -4.14865,1.3931002 -5.0625,2.4375 C 11.980575,3.7096999 11.622013,4.1271723 11.28125,4.375 10.940487,4.6228277 10.636905,4.75 10,4.75 l -2,0 C 7.3888889,4.75 7.2304947,4.6735676 7.03125,4.53125 6.8320053,4.3889324 6.5134711,4.0358317 6.03125,3.3125 a 1.250125,1.250125 0 1 0 -2.0625,1.375 C 4.4865289,5.4641683 4.9179947,6.1110676 5.59375,6.59375 6.2695053,7.0764324 7.1111111,7.25 8,7.25 l 2,0 c 1.113095,0 2.059513,-0.3728277 2.75,-0.875 C 13.440487,5.8728277 13.894425,5.2903001 14.3125,4.8125 15.14865,3.8568998 15.62037,3.25 17.5,3.25 l 1.5,0 c 1.083333,0 1.806008,0.2225515 2.1875,0.5 C 21.568992,4.0274485 21.75,4.3125 21.75,5 21.75,5.7916667 21.580372,6.1696278 21.375,6.375 21.169628,6.5803722 20.791667,6.75 20,6.75 18.583333,6.75 17.321419,7.4285814 16.375,8.375 15.428581,9.3214186 14.75,10.583333 14.75,12 l 0,1 a 1.250125,1.250125 0 1 0 2.5,0 l 0,-1 c 0,-0.583333 0.321419,-1.321419 0.875,-1.875 C 18.678581,9.5714186 19.416667,9.25 20,9.25 21.208333,9.25 22.330372,8.9196278 23.125,8.125 23.919628,7.3303722 24.25,6.2083333 24.25,5 24.25,3.6875 23.681008,2.4725515 22.6875,1.75 21.693992,1.0274485 20.416667,0.75 19,0.75 l -1.5,0 z"
         id="path5432"
         inkscape:connector-curvature="0" />
    </clipPath>
    <filter
       inkscape:collect="always"
       id="filter5442">
      <feGaussianBlur
         inkscape:collect="always"
         stdDeviation="0.375"
         id="feGaussianBlur5444" />
    </filter>
    <filter
       inkscape:collect="always"
       id="filter5446">
      <feGaussianBlur
         inkscape:collect="always"
         stdDeviation="0.375"
         id="feGaussianBlur5448" />
    </filter>
    <clipPath
       clipPathUnits="userSpaceOnUse"
       id="clipPath5473">
      <use
         height="1"
         width="1"
         id="use5475"
         xlink:href="#path4738"
         y="0"
         x="0" />
    </clipPath>
    <linearGradient
       inkscape:collect="always"
       xlink:href="#linearGradient4740-9"
       id="linearGradient5537"
       gradientUnits="userSpaceOnUse"
       x1="8.5"
       y1="14"
       x2="27"
       y2="25.5" />
    <linearGradient
       inkscape:collect="always"
       xlink:href="#linearGradient5277"
       id="linearGradient5539"
       gradientUnits="userSpaceOnUse"
       x1="20"
       y1="20"
       x2="22"
       y2="22" />
    <linearGradient
       inkscape:collect="always"
       xlink:href="#linearGradient5277"
       id="linearGradient5541"
       gradientUnits="userSpaceOnUse"
       x1="24"
       y1="16"
       x2="26"
       y2="18" />
    <linearGradient
       inkscape:collect="always"
       xlink:href="#linearGradient4740-9"
       id="linearGradient5545"
       gradientUnits="userSpaceOnUse"
       x1="8.5"
       y1="14"
       x2="27"
       y2="25.5" />
    <linearGradient
       inkscape:collect="always"
       xlink:href="#linearGradient5277-5"
       id="linearGradient5550"
       gradientUnits="userSpaceOnUse"
       x1="5.5"
       y1="17.5"
       x2="8.5"
       y2="20.5" />
  </defs>
  <sodipodi:namedview
     id="base"
     pagecolor="#ffffff"
     bordercolor="#666666"
     borderopacity="1.0"
     inkscape:pageopacity="0.0"
     inkscape:pageshadow="2"
     inkscape:zoom="16"
     inkscape:cx="17.350888"
     inkscape:cy="12.043752"
     inkscape:current-layer="layer1"
     showgrid="false"
     inkscape:grid-bbox="true"
     inkscape:document-units="px"
     inkscape:object-nodes="true"
     inkscape:window-width="1920"
     inkscape:window-height="1030"
     inkscape:window-x="0"
     inkscape:window-y="0"
     inkscape:window-maximized="1">
    <inkscape:grid
       type="xygrid"
       id="grid4736" />
  </sodipodi:namedview>
  <metadata
     id="metadata4722">
    <rdf:RDF>
      <cc:Work
         rdf:about="">
        <dc:format>image/svg+xml</dc:format>
        <dc:type
           rdf:resource="http://purl.org/dc/dcmitype/StillImage" />
        <dc:title></dc:title>
      </cc:Work>
    </rdf:RDF>
  </metadata>
  <g
     id="layer1"
     inkscape:label="Controller"
     inkscape:groupmode="layer">
    <g
       id="g5425"
       clip-path="url(#clipPath5430)">
      <path
         sodipodi:nodetypes="ccssssssc"
         inkscape:connector-curvature="0"
         id="path5399"
         d="m 16,13 0,-1 C 16,10 18,8 20,8 22,8 23,7 23,5 23,3 21.5,2 19,2 L 17.5,2 C 13,2 13.5,6 10,6 L 8,6 C 6.5,6 6,5.5 5,4"
         style="fill:none;stroke:#4095b8;stroke-width:2.5;stroke-linecap:round;stroke-linejoin:miter;stroke-miterlimit:4;stroke-opacity:1;stroke-dasharray:none" />
      <path
         style="fill:none;stroke:#54a9cd;stroke-width:1.5;stroke-linecap:round;stroke-linejoin:miter;stroke-miterlimit:4;stroke-opacity:1;stroke-dasharray:none;filter:url(#filter5446)"
         d="m 15,13 0,-1 c 0,-2 3,-5 5,-5 2,0 3,0 3,-3 C 23,2 21.5,1 19,1 L 17.5,1 C 13,1 13.5,5 10,5 L 8,5 C 6.5,5 6,4.5 5,3"
         id="path5401"
         inkscape:connector-curvature="0"
         sodipodi:nodetypes="ccssssssc" />
      <path
         style="fill:none;stroke:#3286a9;stroke-width:1.5;stroke-linecap:round;stroke-linejoin:miter;stroke-miterlimit:4;stroke-opacity:1;stroke-dasharray:none;filter:url(#filter5442)"
         d="m 17,13 0,-1 C 17,10 18,9 20,9 22,9 23,8 23,6 23,4.5 21,3 19,3 L 17.5,3 C 13,3 13.5,7 10,7 L 8,7 C 6.5,7 6,6.5 5,5"
         id="path5403"
         inkscape:connector-curvature="0"
         sodipodi:nodetypes="ccssssssc" />
    </g>
    <use
       x="0"
       y="0"
       xlink:href="#path4738"
       id="use5405"
       style="color:#000000;fill:#0a5677;fill-opacity:1;stroke:#0a5677;stroke-width:1.5;stroke-linecap:butt;stroke-linejoin:miter;stroke-miterlimit:4;stroke-opacity:1;stroke-dasharray:none;stroke-dashoffset:0;marker:none;visibility:visible;display:inline;overflow:visible;filter:url(#filter5413);enable-background:accumulate"
       transform="translate(0.5,1.5)"
       width="32"
       height="32" />
    <path
       style="fill-opacity:1"
       d="m 6,13 20,0 c 2.5,0 5,2 5,6 l 0,4 c 0,2.5 -1.5,4 -4,4 l -4,0 c -3,0 -2,-2 -5,-2 l -4,0 c -3,0 -2,2 -5,2 L 5,27 C 2.5,27 1,25.5 1,23 l 0,-4 c 0,-4 2.5,-6 5,-6 z"
       id="path4738"
       inkscape:connector-curvature="0"
       sodipodi:nodetypes="sccccccccccss" />
    <use
       height="32"
       width="32"
       x="0"
       y="0"
       xlink:href="#path4738"
       id="use5359"
       style="color:#000000;fill:#cbe7f3;fill-opacity:1;fill-rule:nonzero;stroke:url(#linearGradient5537);stroke-width:1.5;stroke-linecap:butt;stroke-linejoin:miter;stroke-miterlimit:4;stroke-opacity:1;stroke-dasharray:none;stroke-dashoffset:0;marker:none;visibility:visible;display:inline;overflow:visible;enable-background:accumulate" />
    <g
       id="g5469"
       clip-path="url(#clipPath5473)">
      <path
         inkscape:connector-curvature="0"
         id="path5467"
         d="m 4,26.5 5.5,0 c 2.5,0 1.5,-2 3.5,-2 l 6,0 c 2,0 1,2 3,2 l 6,0"
         style="fill:none;stroke:#f7fbfc;stroke-width:3;stroke-linecap:round;stroke-linejoin:round;stroke-miterlimit:4;stroke-opacity:1;stroke-dasharray:none;filter:url(#filter5381)" />
      <path
         id="path5332"
         d="m 0.5,19.5 c 0.7654216,-3.275731 3,-6 6,-6 l 11.5,0 8,0 c 3,0 5,3 5.5,5.5"
         style="fill:none;stroke:#f7fbfc;stroke-width:3;stroke-linecap:round;stroke-linejoin:round;stroke-miterlimit:4;stroke-opacity:1;stroke-dasharray:none;filter:url(#filter5381)"
         inkscape:connector-curvature="0"
         sodipodi:nodetypes="cscsc" />
    </g>
    <path
       sodipodi:type="arc"
       style="color:#000000;fill:#0a5677;fill-opacity:1;fill-rule:nonzero;stroke:none;stroke-width:1;marker:none;visibility:visible;display:inline;overflow:visible;enable-background:accumulate"
       id="path5450"
       sodipodi:cx="21.5"
       sodipodi:cy="21.5"
       sodipodi:rx="2"
       sodipodi:ry="2"
       d="m 23.5,21.5 a 2,2 0 1 1 -4,0 2,2 0 1 1 4,0 z"
       transform="translate(0.5,0.5)" />
    <path
       sodipodi:type="arc"
       style="color:#000000;fill:#15153f;fill-opacity:1;fill-rule:evenodd;stroke:url(#linearGradient5539);stroke-width:1;stroke-linecap:butt;stroke-linejoin:miter;stroke-miterlimit:4;stroke-opacity:1;stroke-dasharray:none;stroke-dashoffset:0;marker:none;visibility:visible;display:inline;overflow:visible;enable-background:accumulate"
       id="path5256"
       sodipodi:cx="21"
       sodipodi:cy="21"
       sodipodi:rx="1.5"
       sodipodi:ry="1.5"
       d="m 22.5,21 a 1.5,1.5 0 1 1 -3,0 1.5,1.5 0 1 1 3,0 z" />
    <path
       sodipodi:type="arc"
       style="color:#000000;fill:#0a5677;fill-opacity:1;fill-rule:nonzero;stroke:none;stroke-width:1;marker:none;visibility:visible;display:inline;overflow:visible;enable-background:accumulate"
       id="path5452"
       sodipodi:cx="25.5"
       sodipodi:cy="17.5"
       sodipodi:rx="2"
       sodipodi:ry="2"
       d="m 27.5,17.5 a 2,2 0 1 1 -4,0 2,2 0 1 1 4,0 z"
       transform="translate(0.5,0.5)" />
    <path
       sodipodi:type="arc"
       style="color:#000000;fill:#15153f;fill-opacity:1;fill-rule:evenodd;stroke:url(#linearGradient5541);stroke-width:1;stroke-linecap:butt;stroke-linejoin:miter;stroke-miterlimit:4;stroke-opacity:1;stroke-dasharray:none;stroke-dashoffset:0;marker:none;visibility:visible;display:inline;overflow:visible;enable-background:accumulate"
       id="path5258"
       sodipodi:cx="25"
       sodipodi:cy="17"
       sodipodi:rx="1.5"
       sodipodi:ry="1.5"
       d="m 26.5,17 a 1.5,1.5 0 1 1 -3,0 1.5,1.5 0 1 1 3,0 z" />
    <path
       inkscape:connector-curvature="0"
       id="path5328"
       d="m 3.5,18.5 0,2 1,1 1,0 0,1 1,1 3,0 0,-2 2,0 0,-3 -1,-1 -1,0 0,-1 -1,-1 -2,0 0,3 z"
       style="color:#000000;fill:#0a5677;fill-opacity:1;fill-rule:evenodd;stroke:none;stroke-width:0.75;marker:none;visibility:visible;display:inline;overflow:visible;enable-background:accumulate"
       sodipodi:nodetypes="ccccccccccccccccc" />
    <path
       style="color:#000000;fill:#15153f;fill-opacity:1;fill-rule:evenodd;stroke:url(#linearGradient5550);stroke-width:1;stroke-linecap:butt;stroke-linejoin:miter;stroke-miterlimit:4;stroke-opacity:1;stroke-dasharray:none;stroke-dashoffset:0;marker:none;visibility:visible;display:inline;overflow:visible;enable-background:accumulate"
       d="m 3.5,17.5 0,3 2,0 0,2 3,0 0,-2 2,0 0,-3 -2,0 0,-2 -3,0 0,2 z"
       id="path5293"
       inkscape:connector-curvature="0" />
    <use
       height="32"
       width="32"
       style="color:#000000;fill:none;stroke:url(#linearGradient5545);stroke-width:1.5;stroke-linecap:butt;stroke-linejoin:miter;stroke-miterlimit:4;stroke-opacity:1;stroke-dasharray:none;stroke-dashoffset:0;marker:none;visibility:visible;display:inline;overflow:visible;enable-background:accumulate"
       id="use5377"
       xlink:href="#path4738"
       y="0"
       x="0" />
    <path
       inkscape:connector-curvature="0"
       id="path5506"
       style="color:#000000;fill:#3589ac;fill-opacity:1;fill-rule:nonzero;stroke:none;stroke-width:1px;marker:none;visibility:visible;display:inline;overflow:visible;enable-background:accumulate"
       d="m 17,15 0,2 0.5,0 0,-1 0.5,0.5 0.5,-0.5 0,1 0.5,0 0,-2 -0.5,0 L 18,15.5 17.5,15 z m -2,0.5 0,1 c 0,0.5 0,0.5 0.5,0.5 l 1,0 0,-1 -0.5,0 c -0.5,0 0,0 0,0.5 l -0.5,0 0,-1 1,0 0,-0.5 -1,0 C 15,15 15,15 15,15.5 z m -2,-0.5 0,2 1.5,0 0,-0.5 -1,0 0,-0.25 0.5,0 0,-0.5 -0.5,0 0,-0.25 1,0 0,-0.5 z" />
  </g>
</svg>
