<?xml version="1.0" encoding="UTF-8" standalone="no"?>
<!-- Created with Inkscape (http://www.inkscape.org/) -->

<svg
   xmlns:dc="http://purl.org/dc/elements/1.1/"
   xmlns:cc="http://creativecommons.org/ns#"
   xmlns:rdf="http://www.w3.org/1999/02/22-rdf-syntax-ns#"
   xmlns:svg="http://www.w3.org/2000/svg"
   xmlns="http://www.w3.org/2000/svg"
   xmlns:xlink="http://www.w3.org/1999/xlink"
   xmlns:sodipodi="http://sodipodi.sourceforge.net/DTD/sodipodi-0.dtd"
   xmlns:inkscape="http://www.inkscape.org/namespaces/inkscape"
   width="32px"
   height="32px"
   id="svg2985"
   version="1.1"
   inkscape:version="0.48.4 r9939"
   sodipodi:docname="GM5-Compat-blue.svg">
  <defs
     id="defs2987">
    <linearGradient
       id="linearGradient3005">
      <stop
         style="stop-color:#ffc9c9;stop-opacity:1;"
         offset="0"
         id="stop3007" />
      <stop
         id="stop3015"
         offset="0.1"
         style="stop-color:#ff4343;stop-opacity:1;" />
      <stop
         style="stop-color:#ff1f1f;stop-opacity:1;"
         offset="0.2"
         id="stop3019" />
      <stop
         id="stop3013"
         offset="0.34999999"
         style="stop-color:#f20000;stop-opacity:1;" />
      <stop
         style="stop-color:#ab0000;stop-opacity:1;"
         offset="0.75"
         id="stop3017" />
      <stop
         style="stop-color:#580000;stop-opacity:1;"
         offset="1"
         id="stop3009" />
    </linearGradient>
    <radialGradient
       inkscape:collect="always"
       xlink:href="#linearGradient3005"
       id="radialGradient3011"
       cx="16"
       cy="16"
       fx="9"
       fy="6"
       r="16"
       gradientUnits="userSpaceOnUse" />
    <filter
       inkscape:collect="always"
       id="filter3813"
       x="-0.1446"
       width="1.2892"
       y="-0.10255319"
       height="1.2051064">
      <feGaussianBlur
         inkscape:collect="always"
         stdDeviation="0.482"
         id="feGaussianBlur3815" />
    </filter>
    <clipPath
       clipPathUnits="userSpaceOnUse"
       id="clipPath3838">
      <path
         style="font-size:medium;font-style:normal;font-evariant:normal;font-weight:normal;font-stretch:normal;text-indent:0;text-align:start;text-decoration:none;line-height:normal;letter-spacing:normal;word-spacing:normal;text-transform:none;direction:ltr;block-progression:tb;writing-mode:lr-tb;text-anchor:start;baseline-shift:baseline;color:#000000;fill:#ffffff;fill-opacity:1;stroke:none;stroke-width:3;marker:none;visibility:visible;display:inline;overflow:visible;enable-background:accumulate;font-family:Sans;-inkscape-font-specification:Sans"
         d="M 20.84375,17 A 1.50015,1.50015 0 0 0 19.5,18.5 l 0,5 a 1.50015,1.50015 0 0 0 2.40625,1.1875 c 0.488,-0.366 2.310578,-0.875275 3.625,-0.6875 0.657211,0.09389 1.16962,0.310364 1.46875,0.59375 0.29913,0.283386 0.5,0.614583 0.5,1.40625 0,0.819444 -0.209792,1.247767 -0.5,1.5625 -0.290208,0.314733 -0.745168,0.545402 -1.34375,0.65625 -1.197163,0.221697 -2.887753,-0.210202 -3.71875,-0.875 a 1.50015,1.50015 0 1 0 -1.875,2.3125 c 1.669003,1.335202 3.978413,1.903303 6.15625,1.5 1.088918,-0.201652 2.180833,-0.674108 3,-1.5625 C 30.037917,28.705358 30.5,27.430556 30.5,26 30.5,24.541667 29.95087,23.247864 29.0625,22.40625 28.17413,21.564636 27.061539,21.156113 25.96875,21 24.76149,20.827534 23.587992,20.966919 22.5,21.25 l 0,-1.25 6.5,0 a 1.50015,1.50015 0 1 0 0,-3 l -8,0 a 1.50015,1.50015 0 0 0 -0.15625,0 z"
         id="path3840"
         inkscape:connector-curvature="0" />
    </clipPath>
  </defs>
  <sodipodi:namedview
     id="base"
     pagecolor="#ffffff"
     bordercolor="#666666"
     borderopacity="1.0"
     inkscape:pageopacity="0.0"
     inkscape:pageshadow="2"
     inkscape:zoom="1"
     inkscape:cx="28.914859"
     inkscape:cy="7.2533727"
     inkscape:current-layer="layer1"
     showgrid="false"
     inkscape:grid-bbox="true"
     inkscape:document-units="px"
     inkscape:object-nodes="true"
     inkscape:window-width="1920"
     inkscape:window-height="1030"
     inkscape:window-x="0"
     inkscape:window-y="0"
     inkscape:window-maximized="1">
    <inkscape:grid
       type="xygrid"
       id="grid2993"
       empspacing="8"
       visible="true"
       enabled="true"
       snapvisiblegridlinesonly="true" />
  </sodipodi:namedview>
  <metadata
     id="metadata2990">
    <rdf:RDF>
      <cc:Work
         rdf:about="">
        <dc:format>image/svg+xml</dc:format>
        <dc:type
           rdf:resource="http://purl.org/dc/dcmitype/StillImage" />
        <dc:title></dc:title>
      </cc:Work>
    </rdf:RDF>
  </metadata>
  <g
     id="layer1"
     inkscape:label="Layer 1"
     inkscape:groupmode="layer">
    <path
       sodipodi:type="arc"
       style="color:#000000;fill:url(#radialGradient3011);fill-opacity:1;fill-rule:nonzero;stroke:#000000;stroke-opacity:1;marker:none;visibility:visible;display:inline;overflow:visible;enable-background:accumulate"
       id="path2995"
       sodipodi:cx="16"
       sodipodi:cy="16"
       sodipodi:rx="15.5"
       sodipodi:ry="15.5"
       d="m 31.5,16 a 15.5,15.5 0 1 1 -31,0 15.5,15.5 0 1 1 31,0 z" />
    <g
       id="g3842"
       inkscape:transform-center-y="-1.5980758"
       inkscape:transform-center-x="-1.2499999"
       transform="matrix(0.8660254,-0.5,0.5,0.8660254,-5.8564065,10.143594)"
       style="fill:#ffccaa;color:#000000;fill-opacity:1;fill-rule:nonzero;stroke:#b26a3a;stroke-width:1px;stroke-linecap:butt;stroke-linejoin:miter;stroke-miterlimit:4;stroke-opacity:1;stroke-dasharray:none;stroke-dashoffset:0;marker:none;visibility:visible;display:inline;overflow:visible;enable-background:accumulate">
      <path
         inkscape:transform-center-y="-0.5000002"
         sodipodi:nodetypes="ccccccccc"
         inkscape:connector-curvature="0"
         id="path3817"
         d="m 22,14 -16,0 0,4 16,0 0,5 4,0 0,-11 -4,-4 z"
         style="fill:#ffccaa;stroke:#b26a3a;stroke-width:1px;stroke-linecap:butt;stroke-linejoin:miter;stroke-opacity:1;color:#000000;fill-opacity:1;fill-rule:nonzero;stroke-miterlimit:4;stroke-dasharray:none;stroke-dashoffset:0;marker:none;visibility:visible;display:inline;overflow:visible;enable-background:accumulate" />
    </g>
    <g
       id="g3827"
       clip-path="url(#clipPath3838)">
      <path
         sodipodi:nodetypes="ccczc"
         inkscape:connector-curvature="0"
         id="path3021"
         d="m 29,18.5 -8,0 0,5 c 2,-1.5 8,-2 8,2.5 0,4.5 -5.5,4.5 -8,2.5"
         style="fill:none;stroke:#0000ff;stroke-width:3;stroke-linecap:round;stroke-linejoin:round;stroke-opacity:1;stroke-miterlimit:4;stroke-dasharray:none" />
      <path
         sodipodi:nodetypes="ccczc"
         inkscape:connector-curvature="0"
         id="path3819"
         d="m 30,19.5 -8,0 0,5 c 2,-1.5 8,-2 8,2.5 0,4.5 -5.5,4.5 -8,2.5"
         style="fill:none;stroke:#000080;stroke-width:1.75;stroke-linecap:round;stroke-linejoin:round;stroke-miterlimit:4;stroke-opacity:1;stroke-dasharray:none;filter:url(#filter3813)" />
      <path
         style="fill:none;stroke:#16f7ff;stroke-width:1.50000000000000000;stroke-linecap:round;stroke-linejoin:round;stroke-opacity:1;stroke-miterlimit:4;stroke-dasharray:none;filter:url(#filter3813)"
         d="m 29,18.5 -8,0 0,5 c 2,-1.5 8,-2 8,2.5 0,4.5 -5.5,4.5 -8,2.5"
         id="path3791"
         inkscape:connector-curvature="0"
         sodipodi:nodetypes="ccczc" />
    </g>
    <path
       inkscape:connector-curvature="0"
       id="path3836"
       d="M 20.84375,17 A 1.50015,1.50015 0 0 0 19.5,18.5 l 0,5 a 1.50015,1.50015 0 0 0 2.40625,1.1875 c 0.488,-0.366 2.310578,-0.875275 3.625,-0.6875 0.657211,0.09389 1.16962,0.310364 1.46875,0.59375 0.29913,0.283386 0.5,0.614583 0.5,1.40625 0,0.819444 -0.209792,1.247767 -0.5,1.5625 -0.290208,0.314733 -0.745168,0.545402 -1.34375,0.65625 -1.197163,0.221697 -2.887753,-0.210202 -3.71875,-0.875 a 1.50015,1.50015 0 1 0 -1.875,2.3125 c 1.669003,1.335202 3.978413,1.903303 6.15625,1.5 1.088918,-0.201652 2.180833,-0.674108 3,-1.5625 C 30.037917,28.705358 30.5,27.430556 30.5,26 30.5,24.541667 29.95087,23.247864 29.0625,22.40625 28.17413,21.564636 27.061539,21.156113 25.96875,21 24.76149,20.827534 23.587992,20.966919 22.5,21.25 l 0,-1.25 6.5,0 a 1.50015,1.50015 0 1 0 0,-3 l -8,0 a 1.50015,1.50015 0 0 0 -0.15625,0 z"
       style="font-size:medium;font-style:normal;font-evariant:normal;font-weight:normal;font-stretch:normal;text-indent:0;text-align:start;text-decoration:none;line-height:normal;letter-spacing:normal;word-spacing:normal;text-transform:none;direction:ltr;block-progression:tb;writing-mode:lr-tb;text-anchor:start;baseline-shift:baseline;color:#000000;fill:none;fill-opacity:1;stroke:#000043;stroke-width:0.25000000000000000;marker:none;visibility:visible;display:inline;overflow:visible;enable-background:accumulate;font-family:Sans;-inkscape-font-specification:Sans;stroke-miterlimit:4;stroke-dasharray:none;stroke-opacity:1" />
  </g>
</svg>
