<svg id="steamworks__logo--black.1b9968d" xmlns="http://www.w3.org/2000/svg" width="133.931" height="28" viewBox="0 0 133.931 28">
  <g id="Group_2" data-name="Group 2" transform="translate(0 17.132)">
    <g id="Group_1" data-name="Group 1">
      <path id="Path_1" data-name="Path 1" d="M6.515,132.975a4.261,4.261,0,0,1-2.748.865,6.457,6.457,0,0,1-2.121-.321A4.242,4.242,0,0,1,0,132.431l1.3-1.339a2.625,2.625,0,0,0,1.088.684,4.372,4.372,0,0,0,1.4.209c1.214,0,1.828-.432,1.828-1.325a1.288,1.288,0,0,0-.279-.865,1.551,1.551,0,0,0-.963-.419l-.586-.084-.67-.084a3.36,3.36,0,0,1-2-.879,2.879,2.879,0,0,1-.739-2.093,3.024,3.024,0,0,1,.977-2.344A3.756,3.756,0,0,1,3.976,123a5.45,5.45,0,0,1,1.883.293,4.022,4.022,0,0,1,1.451.949l-1.27,1.3a2.2,2.2,0,0,0-.963-.586,4.278,4.278,0,0,0-1.144-.153,1.7,1.7,0,0,0-1.186.377,1.237,1.237,0,0,0-.419.963,1.082,1.082,0,0,0,.321.753,1.629,1.629,0,0,0,.935.432l.628.084.6.084a5.513,5.513,0,0,1,1.172.293,2.678,2.678,0,0,1,.809.516,3.014,3.014,0,0,1,.8,2.26A2.953,2.953,0,0,1,6.515,132.975Z" transform="translate(0 -122.972)" fill="#fff"/>
      <path id="Path_2" data-name="Path 2" d="M77.4,125.555v8.789H75.393v-8.789H72.7V123.7h7.394v1.856Z" transform="translate(-62.558 -123.574)" fill="#fff"/>
      <path id="Path_3" data-name="Path 3" d="M147.8,134.345V123.7h6.794v1.856h-4.771v2.5h4.06v1.856h-4.06V132.5h4.771v1.842Z" transform="translate(-127.18 -123.574)" fill="#fff"/>
      <path id="Path_4" data-name="Path 4" d="M219.79,134.345l-.614-1.883h-3.655l-.628,1.883H212.8l3.753-10.645h1.576l3.767,10.645Zm-2.4-7.506-1.3,3.864h2.567Z" transform="translate(-183.112 -123.574)" fill="#fff"/>
      <path id="Path_5" data-name="Path 5" d="M304.724,134.345V128.15l-1.967,4.032H301.39l-1.981-4.032v6.194H297.4V123.7h1.981l2.693,5.748,2.679-5.748h1.981v10.645Z" transform="translate(-255.909 -123.574)" fill="#fff"/>
      <path id="Path_6" data-name="Path 6" d="M394.34,134.345h-.8l-2.428-9.264-2.441,9.264h-.8L385.3,123.7h.823l2.176,9.25,2.4-9.25h.809l2.4,9.25,2.176-9.25h.823Z" transform="translate(-331.546 -123.574)" fill="#fff"/>
      <path id="Path_7" data-name="Path 7" d="M492.931,130.173a7.729,7.729,0,0,1-.112,1.06,3.383,3.383,0,0,1-.279.851,2.929,2.929,0,0,1-.544.753,3.6,3.6,0,0,1-1.172.809,3.416,3.416,0,0,1-1.4.279,3.662,3.662,0,0,1-1.4-.279,3.6,3.6,0,0,1-1.172-.809,2.71,2.71,0,0,1-.544-.753,3.386,3.386,0,0,1-.279-.851,7.288,7.288,0,0,1-.112-1.06c-.014-.391-.028-.949-.028-1.66s.014-1.27.028-1.66a7.74,7.74,0,0,1,.112-1.06,3.386,3.386,0,0,1,.279-.851,2.93,2.93,0,0,1,.544-.753,3.6,3.6,0,0,1,1.172-.809,3.416,3.416,0,0,1,1.4-.279,3.662,3.662,0,0,1,1.4.279,3.6,3.6,0,0,1,1.172.809,2.711,2.711,0,0,1,.544.753,3.383,3.383,0,0,1,.279.851,7.28,7.28,0,0,1,.112,1.06c.014.391.028.949.028,1.66S492.945,129.783,492.931,130.173Zm-.781-3.209a6.235,6.235,0,0,0-.1-.977,2.707,2.707,0,0,0-.237-.739,2.513,2.513,0,0,0-.432-.6,2.729,2.729,0,0,0-3.906,0,2.823,2.823,0,0,0-.432.6,2.707,2.707,0,0,0-.237.739,6.235,6.235,0,0,0-.1.977c-.014.377-.028.893-.028,1.549s.014,1.172.028,1.549a6.235,6.235,0,0,0,.1.977,3.287,3.287,0,0,0,.237.739,2.511,2.511,0,0,0,.432.6,2.729,2.729,0,0,0,3.906,0,2.824,2.824,0,0,0,.432-.6,2.706,2.706,0,0,0,.237-.739,6.235,6.235,0,0,0,.1-.977c.014-.377.028-.893.028-1.549S492.164,127.341,492.15,126.964Z" transform="translate(-418.111 -123.058)" fill="#fff"/>
      <path id="Path_8" data-name="Path 8" d="M569.469,134.345l-2.455-4.925h-2.832v4.925H563.4V123.7h3.92a3.07,3.07,0,0,1,2.135.753,2.711,2.711,0,0,1,.823,2.093,2.737,2.737,0,0,1-2.386,2.874l2.483,4.925Zm-.6-9.375a2.416,2.416,0,0,0-1.646-.544h-3.041v4.3h3.027a2.391,2.391,0,0,0,1.646-.544,2,2,0,0,0,.628-1.6A1.951,1.951,0,0,0,568.869,124.97Z" transform="translate(-484.799 -123.574)" fill="#fff"/>
      <path id="Path_9" data-name="Path 9" d="M647.143,134.345l-3.306-5.957-2.455,3.083v2.874H640.6V123.7h.781v6.655L646.6,123.7h.935l-3.181,4.06,3.725,6.571h-.935Z" transform="translate(-551.229 -123.574)" fill="#fff"/>
      <path id="Path_10" data-name="Path 10" d="M716.357,132.859a3.791,3.791,0,0,1-2.539.8,4.834,4.834,0,0,1-1.911-.335,4.436,4.436,0,0,1-1.507-1.074l.544-.572a4.168,4.168,0,0,0,1.339.977,4.109,4.109,0,0,0,1.59.279,2.952,2.952,0,0,0,1.939-.586,1.97,1.97,0,0,0,.711-1.618,1.9,1.9,0,0,0-.558-1.493,2.042,2.042,0,0,0-.572-.363,5.978,5.978,0,0,0-.907-.209l-.628-.112-.572-.084a3.5,3.5,0,0,1-1.842-.781,2.439,2.439,0,0,1-.809-1.953,2.774,2.774,0,0,1,.865-2.135,3.324,3.324,0,0,1,2.33-.8,3.981,3.981,0,0,1,2.958,1.172l-.5.516a4.181,4.181,0,0,0-1.088-.739,3.442,3.442,0,0,0-1.409-.251,2.464,2.464,0,0,0-1.744.586,2.111,2.111,0,0,0-.642,1.6,1.8,1.8,0,0,0,.53,1.4,2.684,2.684,0,0,0,.684.4,4.579,4.579,0,0,0,.851.251l.488.07.628.112a4.683,4.683,0,0,1,1.116.265,2.613,2.613,0,0,1,.726.446,2.358,2.358,0,0,1,.669.893,2.962,2.962,0,0,1,.237,1.158A2.836,2.836,0,0,1,716.357,132.859Z" transform="translate(-611.291 -122.8)" fill="#fff"/>
    </g>
  </g>
  <g id="Group_3" data-name="Group 3" transform="translate(89.357)">
    <rect id="Rectangle_2" data-name="Rectangle 2" width="11.566" height="11.566" transform="translate(33.008)" fill="#fff"/>
    <rect id="Rectangle_3" data-name="Rectangle 3" width="8.385" height="8.385" transform="translate(24.624 11.552)" fill="#fff"/>
    <rect id="Rectangle_4" data-name="Rectangle 4" width="5.999" height="5.999" transform="translate(0 2.776)" fill="#fff"/>
  </g>
  <g id="Group_4" data-name="Group 4" transform="translate(106.238 17.439)">
    <path id="Path_11" data-name="Path 11" d="M761.946,125.24v.907h-.153v-.907H761.5V125.1h.739v.139Z" transform="translate(-761.5 -125.086)" fill="#fff"/>
    <path id="Path_12" data-name="Path 12" d="M768.867,126.06v-.712l-.237.516H768.5l-.251-.516v.712H768.1V125h.154l.307.656.307-.656h.153v1.06Z" transform="translate(-767.179 -125)" fill="#fff"/>
  </g>
</svg>
