<?xml version="1.0" encoding="utf-8"?>
<!DOCTYPE svg PUBLIC "-//W3C//DTD SVG 1.1//EN" "http://www.w3.org/Graphics/SVG/1.1/DTD/svg11.dtd">
<svg version="1.1" id="Layer_1" xmlns="http://www.w3.org/2000/svg" xmlns:xlink="http://www.w3.org/1999/xlink" x="0px" y="0px"
	 width="355.666px" height="89.333px" viewBox="0 0 355.666 89.333" enable-background="new 0 0 355.666 89.333"
	 xml:space="preserve">
<g>
	<path fill="#C5C3C0" d="M44.238,0.601C21,0.601,1.963,18.519,0.154,41.29l23.71,9.803c2.009-1.374,4.436-2.179,7.047-2.179
		c0.234,0,0.467,0.008,0.698,0.021l10.544-15.283c0-0.073-0.001-0.144-0.001-0.216c0-9.199,7.483-16.683,16.683-16.683
		c9.199,0,16.682,7.484,16.682,16.683c0,9.199-7.483,16.684-16.682,16.684c-0.127,0-0.253-0.003-0.379-0.006l-15.038,10.73
		c0.008,0.195,0.015,0.394,0.015,0.592c0,6.906-5.617,12.522-12.522,12.522c-6.061,0-11.129-4.326-12.277-10.055L1.678,56.893
		c5.25,18.568,22.309,32.181,42.56,32.181c24.432,0,44.237-19.806,44.237-44.235C88.475,20.406,68.669,0.601,44.238,0.601"/>
	<path fill="#C5C3C0" d="M27.875,67.723l-5.434-2.245c0.963,2.005,2.629,3.684,4.841,4.606c4.782,1.992,10.295-0.277,12.288-5.063
		c0.965-2.314,0.971-4.869,0.014-7.189c-0.955-2.321-2.757-4.131-5.074-5.097c-2.299-0.957-4.762-0.922-6.926-0.105l5.613,2.321
		c3.527,1.47,5.195,5.52,3.725,9.047C35.455,67.526,31.402,69.194,27.875,67.723"/>
	<path fill="#C5C3C0" d="M69.95,33.436c0-6.129-4.986-11.116-11.116-11.116c-6.129,0-11.116,4.987-11.116,11.116
		c0,6.13,4.987,11.115,11.116,11.115C64.964,44.55,69.95,39.565,69.95,33.436 M50.502,33.417c0-4.612,3.739-8.35,8.351-8.35
		c4.612,0,8.351,3.738,8.351,8.35s-3.739,8.35-8.351,8.35C54.241,41.767,50.502,38.028,50.502,33.417"/>
</g>
</svg>
